<?xml version="1.0" standalone="no"?>
<!DOCTYPE svg PUBLIC "-//W3C//DTD SVG 20010904//EN"
 "http://www.w3.org/TR/2001/REC-SVG-20010904/DTD/svg10.dtd">
<svg version="1.0" xmlns="http://www.w3.org/2000/svg"
 width="256.000000pt" height="256.000000pt" viewBox="0 0 256.000000 256.000000"
 preserveAspectRatio="xMidYMid meet">

<g transform="translate(0.000000,256.000000) scale(0.100000,-0.100000)"
fill="#000000" stroke="none">
<path d="M681 2513 c-57 -66 -116 -190 -148 -309 -25 -92 -27 -113 -27 -314
-1 -237 10 -307 74 -468 94 -233 283 -387 542 -440 l78 -17 0 -402 0 -403
-215 0 c-216 0 -216 0 -240 -25 -33 -32 -33 -78 0 -110 l24 -25 511 0 511 0
24 25 c16 15 25 36 25 55 0 19 -9 40 -25 55 -24 25 -24 25 -240 25 l-215 0 0
403 0 402 78 17 c259 53 448 207 542 440 64 161 75 231 74 468 0 201 -2 222
-27 314 -32 119 -91 243 -148 309 l-41 47 -558 0 -558 0 -41 -47z m1115 -159
c84 -143 124 -364 104 -575 -21 -226 -85 -385 -196 -489 -115 -107 -255 -160
-424 -160 -237 0 -435 114 -529 303 -136 274 -127 696 20 934 l21 33 488 0
489 0 27 -46z"/>
<path d="M735 1828 c28 -375 165 -559 452 -606 83 -14 103 -14 186 0 289 47
422 228 452 611 l7 87 -552 0 -552 0 7 -92z"/>
</g>
</svg>
