<?xml version="1.0" encoding="UTF-8" standalone="no"?>
<svg
   version="1.1"
   viewBox="0 0 524 524"
   enable-background="new 0 0 524 524"
   id="svg2"
   xmlns="http://www.w3.org/2000/svg"
   xmlns:svg="http://www.w3.org/2000/svg">
  <path
     id="glass"
     style="fill:#000000;stroke:#ffffff;stroke-width:15;stroke-opacity:1"
     d="m 139,8 a 192,200 0 0 0 -36,82 222,334 41 0 0 138,236 v 158 h -81 a 16,16 0 0 0 0,32 h 192 a 16,16 0 0 0 0,-32 H 271 V 326 A 222,334 -41 0 0 409,90 192,200 0 0 0 373,8 M 355,38 A 192,200 0 0 1 381,133 187.5,334 -35 0 1 256,292 187.5,334 35 0 1 131,133 192,200 0 0 1 157,38 Z" />
  <path
     id="wine-level"
     style="fill:#000000;stroke:#ffffff;stroke-width:15;stroke-opacity:1"
     d="M 130.89329,136 C 127.43056,223.18769 184.92587,291.90751 256,292 c 71.07413,-0.0925 128.56944,-68.81231 125.10671,-156 z" />
</svg>
