<svg version="1.1" xmlns="http://www.w3.org/2000/svg" xmlns:xlink="http://www.w3.org/1999/xlink" viewBox="0 0 512 512" enable-background="new 0 0 512 512">
<path
transform=
	"rotate(15 256,256)
	translate(0 25)
	scale(0.93, 0.93)"
d=
"M139,2
	A 192,200 0 0 0 103,84
	A 222,334 41 0 0 241,320
	V478
	H160
	A 16,16 0 0 0 160,510
	H352
	A16 16 0 0 0 352,478
	H271
	V320
	A 222,334 -41 0 0 409,84
	A 192,200 0 0 0 373,2
M355,32
	A 192,200 0 0 1 381,127
	A 187.5,334 -35 0 1 256,286
	A 187.5,334 35 0 1 131,127
	A 192,200 0 0 1 157,32
	H355
M146,147
	A 168,300 35 0 0 256,270
	A 168,300 -35 0 0 366,128
	S 360,50 280,110
	S 192,128 147,147
z" />

</svg>
