<svg version="1.1" xmlns="http://www.w3.org/2000/svg" xmlns:xlink="http://www.w3.org/1999/xlink" viewBox="0 0 512 512" enable-background="new 0 0 512 512">

<g transform="translate(0 80) rotate(90 256,256)">
<path id="glass" d=
"M139,2
	A 192,200 0 0 0 103,84
	A 222,334 41 0 0 241,320
	V478
	H160
	A 16,16 0 0 0 160,510
	H352
	A16 16 0 0 0 352,478
	H271
	V320
	A 222,334 -41 0 0 409,84
	A 192,200 0 0 0 373,2
M355,32
	A 192,200 0 0 1 381,127
	A 187.5,334 -35 0 1 256,286
	A 187.5,334 35 0 1 131,127
	A 192,200 0 0 1 157,32
	H355
z" />
<path id="wine-level" d=
"M345,44
	A 192,184 0 0 1 366,126
	A 320,180 55 0 1 345,226
z"/>
</g>
</svg>
