<svg version="1.1" xmlns="http://www.w3.org/2000/svg" viewBox="0 0 524 524" enable-background="new 0 0 524 524">
	<defs>
		<g id="glass">
			<path fill-rule="evenodd" d=
				"M262,8
					h-117
					a 192,200 0 0 0 -36,82
					a 222,334 41 0 0 138,236
					v158
					h-81
					a 16,16 0 0 0 0,32
					h192
					a 16 16 0 0 0 0,-32
					h-81
					v-158
					a 222,334 -41 0 0 138,-236
					a 192,200 0 0 0 -36,-82
					h-117
				m-99,30
					a 192,200 0 0 0 -26,95
					a 187.5,334 35 0 0 125,159
					a 187.5,334 -35 0 0 125,-159
					a 192,200 0 0 0 -26,-95
					h-198
				z"/>
		</g>
		<g id="wine-level">
			<path d=
				"M158,136
					a 168,305 35 0 0 104,136
					a 168,305 -35 0 0 104,-136
				z"/>
		</g>
	</defs>	
	<use href="#glass" stroke="#ffffffa0" stroke-width="16" fill="Transparent" />
	<use href="#wine-level" stroke="#ffffffa0" stroke-width="16" fill="Transparent" />
	<use href="#glass" fill="Black" />
	<use href="#wine-level" fill="Black" />
</svg>
