<svg version="1.1" xmlns="http://www.w3.org/2000/svg" xmlns:xlink="http://www.w3.org/1999/xlink" viewBox="0 0 512 512" width="512px" enable-background="new 0 0 512 512">
<path id="slosh" transform=
	"translate(-50 23)
	scale(0.7, 0.7)
	rotate(12 256,256)"
d=
"M139,2
	A 192,200 0 0 0 103,84
	A 222,334 41 0 0 241,320
	V478
	H160
	A 16,16 0 0 0 160,510
	H352
	A16 16 0 0 0 352,478
	H271
	V320
	A 222,334 -41 0 0 409,84
	A 192,200 0 0 0 373,2
M355,32
	A 192,200 0 0 1 381,127
	A 187.5,334 -35 0 1 256,286
	A 187.5,334 35 0 1 131,127
	A 192,200 0 0 1 157,32
	H355
M146,147
	A 168,300 35 0 0 256,270
	A 168,300 -35 0 0 366,128
	S 360,50 280,110
	S 192,128 147,147
z" />
<use href="#slosh" transform="translate(512 0) scale(-1 1)" />
</svg>
