<svg version="1.1" xmlns="http://www.w3.org/2000/svg" viewBox="0 0 288 288" enable-background="new 0 0 288 288">
	<defs>
		<g id="glass">
			<path transform="translate(16 16)" fill-rule="evenodd" d=
				"M177,16
					H79
					A 32.0781 63.7932 -1.5106 0 0 66 80
					A 158.789 471.1259 41.9466 0 0 90 131
					A 81.7197 122.0515 35.3745 0 0 128 143.3484
					A 81.7197 122.0515 -35.3745 0 0 166 131
					A 158.789 471.1259 -41.9466 0 0 190 80
					A 32.0781 63.7932 1.5106 0 0 177 16
					L 184 0
					A 44.7901 78.5247 1.1521 0 1 194 122
					A 97.0039 135.3148 -36.2124 0 1 136 159
					V 240
					H 176
					A 8 8 0 0 1 176 256
					H 80
					A 8 8 0 0 1 80 240
					H 120
					V 159					
					A 97.0039 135.3148 36.2124 0 1 62 122
					A 44.7901 78.5247 -1.1521 0 1 72 0
					H184
				z"/>
		</g>
		<g transform="translate(16 16)" id="wine-level">
			<path d=
				"M182,64
					H 74
					A 115.9979 308.8033 38.9474 0 0 128 134.4277
					A 115.9979 308.8033 -38.9474 0 0 182,64
				z"/>
		</g>
	</defs>	
	<use href="#glass" stroke="rgba(0, 0, 0, 0.3)" stroke-width="16" fill="Transparent" />
	<use href="#wine-level" stroke="rgba(0, 0, 0, 0.3)" stroke-width="16" fill="Transparent" />
	<use href="#glass" fill="#ffffff" />
	<use href="#wine-level" fill="#ffffff" />
</svg>
